<svg width="19" height="12" viewBox="0 0 19 12" fill="none" xmlns="http://www.w3.org/2000/svg">
<path d="M16.5 1L16.5 1.5L17 1.5L17.5 1.5L17.5 10.5L17 10.5L16.5 10.5L16.5 11L16.5 11.5L16 11.5L3 11.5L2.5 11.5L2.5 11L2.5 10.5L2 10.5L1.5 10.5L1.5 1.5L2 1.5L2.5 1.5L2.5 0.999999L2.5 0.5L3 0.5L16 0.5L16.5 0.5L16.5 1Z" fill="#F6F6F6" stroke="#F6F6F6"/>
<path fill-rule="evenodd" clip-rule="evenodd" d="M13 3.5H14V4.5H15V5.5H16V6.5H15V7.5H14V8.5H13V3.5Z" fill="#575757"/>
<path fill-rule="evenodd" clip-rule="evenodd" d="M6 8.5H5V7.5H4V6.5H3V5.5H4V4.5H5V3.5H6V8.5Z" fill="#575757"/>
<rect x="7" y="3.5" width="1" height="5" fill="#9D9D9D"/>
<rect x="9" y="3.5" width="1" height="5" fill="#9D9D9D"/>
<rect x="11" y="3.5" width="1" height="5" fill="#9D9D9D"/>
<rect y="2" width="1" height="8" fill="#9D9D9D"/>
<rect x="19" y="10" width="1" height="8" transform="rotate(-180 19 10)" fill="#9D9D9D"/>
<rect x="16" width="1" height="13" transform="rotate(90 16 0)" fill="#9D9D9D"/>
<rect x="2" y="1" width="1" height="1" transform="rotate(90 2 1)" fill="#9D9D9D"/>
<rect x="17" y="11" width="1" height="1" transform="rotate(-90 17 11)" fill="#9D9D9D"/>
<rect x="2" y="10" width="1" height="1" transform="rotate(90 2 10)" fill="#9D9D9D"/>
<rect x="17" y="2" width="1" height="1" transform="rotate(-90 17 2)" fill="#9D9D9D"/>
<rect x="3" width="1" height="1" transform="rotate(90 3 0)" fill="#9D9D9D"/>
<rect x="16" y="12" width="1" height="1" transform="rotate(-90 16 12)" fill="#9D9D9D"/>
<rect x="3" y="11" width="1" height="1" transform="rotate(90 3 11)" fill="#9D9D9D"/>
<rect x="16" y="1" width="1" height="1" transform="rotate(-90 16 1)" fill="#9D9D9D"/>
<rect x="16" y="11" width="1" height="13" transform="rotate(90 16 11)" fill="#9D9D9D"/>
</svg>
